<?xml version="1.0" encoding="utf-8"?>
<!-- Generator: Adobe Illustrator 23.0.1, SVG Export Plug-In . SVG Version: 6.00 Build 0)  -->
<svg version="1.1" id="Layer_1" xmlns="http://www.w3.org/2000/svg" xmlns:xlink="http://www.w3.org/1999/xlink" x="0px" y="0px"
	 viewBox="0 0 612 792" style="enable-background:new 0 0 612 792;" xml:space="preserve">
<g>
	<path d="M371.56,396.28c-14.43-14.09-28.64-27.66-42.52-41.57c-40.04-40.1-79.91-80.35-119.93-120.46c-5-5.01-7.6-10.58-5.66-17.54
		c3.34-12.01,17.91-15.48,27.19-6.41c12.15,11.88,24.1,23.98,36.13,35.99c45.99,45.92,91.98,91.85,137.98,137.76
		c8.76,8.75,8.87,17.35,0.15,26.07c-57.61,57.64-115.26,115.24-172.83,172.91c-4.87,4.88-10.33,7.38-17.1,5.58
		c-6.12-1.63-10.04-5.79-11.48-12c-1.51-6.5,1.06-11.6,5.59-16.16c30.06-30.27,60.06-60.61,90.08-90.92
		c22.52-22.73,45.04-45.46,67.56-68.19C368,400.04,369.24,398.71,371.56,396.28z"/>
</g>
</svg>
