<?xml version="1.0" encoding="utf-8"?>
<!-- Generator: Adobe Illustrator 23.0.1, SVG Export Plug-In . SVG Version: 6.00 Build 0)  -->
<svg version="1.1" id="Layer_1" xmlns="http://www.w3.org/2000/svg" xmlns:xlink="http://www.w3.org/1999/xlink" x="0px" y="0px"
	 viewBox="0 0 292.5 71.2" style="enable-background:new 0 0 292.5 71.2;" xml:space="preserve">
<title>tekbots</title>
<path d="M132.3,1.9c1.2-0.4,2.3-1.3,3.5-1.3c11.8,0,23.6,0,35.5,0.3c2.5,0.1,4.9,0.6,7.3,1.5c3.4,1.2,6.5,3,6.6,7.2
	s-1.9,7.3-5.6,9.2c-1.3,0.7-2.7,1.3-3.9,1.9c0,0.5-0.1,1,0,1.1c6.3,5.3,6,5.2,3.9,13.3c-1.2,4.3-1.6,8.8-1.2,13.3
	c0.3,3.3-0.9,5-3,6.6c-7,5.4-15.2,6.6-23.6,6.7c-11.5,0.2-23,0.2-34.5-0.1c-2.1-0.1-5.2-1.9-6.1-3.7c-2.8-6.1-4.8-12.6-7.2-19
	c-4.6,1.8-9.2,14-6.2,18c1,1.3,3.3,1.5,5.1,2.3c-1.3,2.9-6.2,3.5-19.5,2.2c0.5-1.1,1-2.3,1.4-3.5c1.1-5.1,3.6-10.6,2.7-15.4
	c-1.6-8-1.2-16.3,1.1-24.2l-7.3-1.6L104.9,0l1.2,1c-0.9,5.7-1.8,11.3-2.8,17s-2.1,11.4-3.1,17l1.1,0.8l17.3-12.6l-0.5-1.4l-5.8-1.3
	c1.9-2.9,9.8-3.6,19.7-1.9c-0.8,1-1.1,2-1.9,2.5c-1.1,0.7-2.6,0.8-3.7,1.4c-9.5,5.1-10.3,6.3-6.7,16.5c2.3,6.5,5.5,12.6,8.4,18.9
	l2-0.2c0.7-1.6,1.3-3.3,1.8-5.1c2.4-13.2,4.8-26.5,7.1-39.8C140.2,4.8,140.2,4.8,132.3,1.9z M168.5,36.9c0-8.5-4.2-14.4-11-15.7
	c-2.4-0.5-3.7,0.1-4.1,2.7c-1.5,9.5-3.2,19-4.6,28.5c-0.8,5.3,1.1,6.7,6.3,5.3C162.4,55.7,168.5,46.3,168.5,36.9L168.5,36.9z
	 M154.6,17.3c4.6,0.6,8.4,1.2,12.1,1.4c1.2,0,2.4-0.6,3.1-1.6c2-3.2,2.8-7.3-0.6-9.4s-7.5-2.3-11.4-3.2c-0.3-0.1-1.2,1.1-1.4,1.8
	C155.9,9.9,155.3,13.4,154.6,17.3L154.6,17.3z"/>
<path d="M84,46.8H42.9c0,5.9,3.5,10.4,9.5,12.7c5.8,2.2,13.3,0.9,16.7-4.3c3.9-5.8,8.7-4.6,13.9-4.1C81.3,63.7,68,72.7,53.9,71
	c-14.6-1.8-24.5-15.3-22.5-30.8c1.9-14.4,15.3-24.1,30.5-22.2C75.4,19.8,85.6,32.6,84,46.8z M72.9,41.8c-1.3-8.3-7.5-13.3-15.8-13.1
	c-7.8,0.2-13.7,5.5-14.4,13.1H72.9z"/>
<path d="M208.1,71.2c-14.7,0.2-26.8-11.6-27-26.4c-0.2-14.7,11.6-26.8,26.4-27c0.3,0,0.7,0,1,0c14.7-0.2,26.8,11.6,27,26.4
	c0.2,14.7-11.6,26.8-26.4,27C208.7,71.2,208.4,71.2,208.1,71.2L208.1,71.2z M208.4,60.4c8.7-0.2,15.7-7.2,15.9-16
	c-0.2-8.9-7.5-16-16.4-15.8c0,0-0.1,0-0.1,0c-8.7,0.2-15.6,7.4-15.5,16.1C192.6,53.5,199.7,60.4,208.4,60.4z"/>
<path d="M31.9,61.5H5.8L5.1,60c1.3-0.7,2.6-2,3.7-1.9c5,0.6,6.7-1.6,7.4-6.2c2.2-14,4.7-27.9,7.1-41.8c0.2-1.4,0.3-2.9,0.4-4.6
	C14.7,4.9,6.4,5.9,0,14.6C0.6,4.3,4.3,0.6,12.5,0.6h42c7.4,0,7.4,0,8.3,7.3c0.1,1.8,0.1,3.5,0,5.3c-1.3-0.2-2.1-0.1-2.2-0.4
	c-3.2-7.6-10.2-7-16.5-7.4c-1.2-0.1-3.1,1.7-3.8,3.1s-0.8,3.5-1,5.4c-0.4,4.4-2.2,8.6-5.1,12c-7.9,9.6-8.9,20.5-3.6,31.8
	c0.4,0.9,0.8,1.8,1.2,2.7C31.9,60.7,31.9,61.1,31.9,61.5z"/>
<path d="M290.3,27.2c-5.5-7.2-10.9-9.2-17.1-6c-1.8,0.9-3.9,3.3-3.9,5c0,1.7,2.4,3.6,4.3,4.5c2.8,1.4,6,1.8,9.1,2.8
	c10.7,3.5,13.2,13.8,5.2,21.8c-6.7,6.7-15.3,8.3-24.4,8.3c-2-0.1-4-0.2-6-0.6c-6.5-0.8-8-2.8-6.6-9.3c0.2-1,1.1-1.8,1.7-2.7
	c0.8,0.7,2,1.1,2.4,2c3.8,7.1,16.2,8.7,21.5,2.6c2.8-3.2,2.4-6.2-1.6-8c-3.2-1.4-6.7-2.1-10-3.2c-4.7-1.6-9.3-3.5-10.1-9.2
	c-0.7-5.3,1.4-9.9,5.7-13.1c8.7-6.8,18.7-7.4,28.9-4.8C293.1,18.2,293.4,22.8,290.3,27.2z"/>
<path d="M236.2,21.3l-4-0.5l-0.5-1.1l22.5-15.9l1.2,1c-0.6,4.2-1.2,8.4-1.9,12.8l5.5,1c-0.7,0.9-1.1,1.9-1.6,2
	c-5.8,0.2-5.5,4.6-6.1,8.4c-1.4,10.5-2.7,21.1-4.2,31.6c-0.2,1.1-1.7,3-2.5,2.9c-3.2-0.3-6.4-0.9-9.5-1.8c-0.2-0.1,0.1-2.5,0.3-3.9
	c0.9-5.3,2.6-10.7,2.7-16C238.3,35.1,237,28.6,236.2,21.3z"/>
</svg>
